<?xml version="1.0" standalone="no"?><!DOCTYPE svg PUBLIC "-//W3C//DTD SVG 1.1//EN" "http://www.w3.org/Graphics/SVG/1.1/DTD/svg11.dtd"><svg t="1564714052434" class="icon" viewBox="0 0 1024 1024" version="1.1" xmlns="http://www.w3.org/2000/svg" p-id="6780" xmlns:xlink="http://www.w3.org/1999/xlink" width="200" height="200"><defs><style type="text/css"></style></defs><path d="M509.59 48.653c-250.653 0-453.647 203.053-453.647 453.647s202.992 453.647 453.647 453.647c250.594 0 453.647-203.053 453.647-453.647s-203.052-453.647-453.647-453.647v0zM454.244 741.278h-186.596v-186.596h186.599v186.596h-0.001zM454.244 451.19h-186.596v-186.541h186.599v186.541h-0.001zM751.534 741.763h-233.963v-74.336h233.963v74.336zM751.534 628.353h-233.963v-74.336h233.963v74.336zM751.534 450.583h-233.963v-74.398h233.963v74.398zM751.534 337.17h-233.963v-74.398h233.963v74.398z" p-id="6781" fill="#BFCBD9"></path></svg>