<?xml version="1.0" standalone="no"?><!DOCTYPE svg PUBLIC "-//W3C//DTD SVG 1.1//EN" "http://www.w3.org/Graphics/SVG/1.1/DTD/svg11.dtd"><svg t="1564714125598" class="icon" viewBox="0 0 1024 1024" version="1.1" xmlns="http://www.w3.org/2000/svg" p-id="6977" xmlns:xlink="http://www.w3.org/1999/xlink" width="200" height="200"><defs><style type="text/css"></style></defs><path d="M411.334299 100.186793 155.095357 100.186793c-30.324656 0-54.908564 24.583908-54.908564 54.908564l0 256.239965c0 30.324656 24.583908 54.907541 54.908564 54.907541l256.239965 0c30.324656 0 54.908564-24.582885 54.908564-54.907541L466.243887 155.095357C466.242863 124.769678 441.658955 100.186793 411.334299 100.186793L411.334299 100.186793zM397.60767 306.092373l-91.515297 0 0 91.515297-45.756113 0 0-91.515297-91.514273 0 0-45.756113 91.514273 0 0-91.514273 45.756113 0 0 91.514273 91.515297 0L397.60767 306.092373 397.60767 306.092373z" p-id="6978"></path><path d="M868.904643 100.186793 612.665701 100.186793c-30.324656 0-54.908564 24.583908-54.908564 54.908564l0 256.239965c0 30.324656 24.583908 54.907541 54.908564 54.907541l256.238942 0c30.324656 0 54.908564-24.582885 54.908564-54.907541L923.813207 155.095357C923.813207 124.769678 899.229299 100.186793 868.904643 100.186793L868.904643 100.186793zM855.179037 306.092373 626.39233 306.092373l0-45.756113 228.786707 0L855.179037 306.092373 855.179037 306.092373z" p-id="6979"></path><path d="M411.334299 557.75816 155.095357 557.75816c-30.324656 0-54.908564 24.583908-54.908564 54.908564l0 256.237919c0 30.326702 24.583908 54.907541 54.908564 54.907541l256.239965 0c30.324656 0 54.908564-24.581861 54.908564-54.907541L466.243887 612.667747C466.242863 582.342068 441.658955 557.75816 411.334299 557.75816L411.334299 557.75816zM380.280026 805.497521l-32.354895 32.356942-64.710814-64.711837-64.710814 64.711837-32.354895-32.356942 64.709791-64.710814-64.709791-64.711837 32.354895-32.352849 64.709791 64.709791 64.710814-64.709791 32.354895 32.352849-64.709791 64.711837L380.280026 805.497521 380.280026 805.497521z" p-id="6980" ></path><path d="M868.904643 557.75816 612.665701 557.75816c-30.324656 0-54.908564 24.583908-54.908564 54.908564l0 256.237919c0 30.326702 24.583908 54.907541 54.908564 54.907541l256.238942 0c30.324656 0 54.908564-24.581861 54.908564-54.907541L923.813207 612.667747C923.813207 582.342068 899.229299 557.75816 868.904643 557.75816L868.904643 557.75816zM832.30098 809.422923l-183.028547 0L649.272433 763.665787l183.028547 0L832.30098 809.422923 832.30098 809.422923zM832.30098 717.907627l-183.028547 0L649.272433 672.151513l183.028547 0L832.30098 717.907627 832.30098 717.907627z" p-id="6981"></path></svg>