<?xml version="1.0" standalone="no"?><!DOCTYPE svg PUBLIC "-//W3C//DTD SVG 1.1//EN" "http://www.w3.org/Graphics/SVG/1.1/DTD/svg11.dtd"><svg t="1564714178429" class="icon" viewBox="0 0 1024 1024" version="1.1" xmlns="http://www.w3.org/2000/svg" p-id="7230" xmlns:xlink="http://www.w3.org/1999/xlink" width="200" height="200"><defs><style type="text/css"></style></defs><path d="M335.990288 351.989825h319.99075a31.999075 31.999075 0 0 0 0-63.99815H335.990288a31.999075 31.999075 0 0 0 0 63.99815zM335.990288 575.98335h319.99075a31.999075 31.999075 0 0 0 0-63.99815H335.990288a31.999075 31.999075 0 0 0 0 63.99815z" p-id="7231"></path><path d="M873.894739 0H189.91451A62.238201 62.238201 0 0 0 127.9963 61.91821V767.977801h63.99815V63.99815h652.781131c-24.159302 18.079477-40.638825 44.798705-43.998728 108.476864L799.976876 879.974563c0 53.598451-21.43938 79.997688-63.99815 79.997688h-11.999654a55.678391 55.678391 0 0 0 9.119737 0 15.999538 15.999538 0 0 1 4.959856 0 17.759487 17.759487 0 0 0-4.47987 0 55.678391 55.678391 0 0 1-9.119736 0 66.07809 66.07809 0 0 1-20.159418-120.476518c30.399121-21.279385 5.759834-71.517933-31.999075-71.517932H108.316869C47.998613 767.977801 0 825.256145 0 895.974101s47.998613 127.9963 108.316869 127.9963h626.381894a125.276379 125.276379 0 0 0 127.9963-124.156411V287.991675H991.971326a31.999075 31.999075 0 0 0 31.999075-31.999075v-95.997225a159.995375 159.995375 0 0 0-150.075662-159.995375zM63.99815 895.974101c0-34.079015 20.639403-63.99815 44.318719-63.99815H623.981963a123.196439 123.196439 0 0 0-15.999537 62.558191A143.995838 143.995838 0 0 0 623.981963 959.972251H108.316869C84.637553 959.972251 63.99815 930.053116 63.99815 895.974101z m895.974101-671.980576h-95.997225V145.115805a44.9587 44.9587 0 0 1 3.679893-11.359671 47.998613 47.998613 0 0 1 14.399584-18.239473 46.71865 46.71865 0 0 1 21.599376-9.279732 47.998613 47.998613 0 0 1 43.358746 15.999538 50.718534 50.718534 0 0 1 9.439728 15.999537 47.998613 47.998613 0 0 1 3.039912 13.439612c1.279963 1.919945 0.479986 68.638016 0.479986 72.317909z" p-id="7232" ></path></svg>