<?xml version="1.0" standalone="no"?><!DOCTYPE svg PUBLIC "-//W3C//DTD SVG 1.1//EN" "http://www.w3.org/Graphics/SVG/1.1/DTD/svg11.dtd"><svg t="1564713779232" class="icon" viewBox="0 0 1024 1024" version="1.1" xmlns="http://www.w3.org/2000/svg" p-id="5130" xmlns:xlink="http://www.w3.org/1999/xlink" width="200" height="200"><defs><style type="text/css"></style></defs><path d="M512 0C229.256533 0 0 229.239467 0 512c0 282.760533 229.256533 512 512 512 282.7776 0 512-229.239467 512-512C1024 229.239467 794.7776 0 512 0z m182.766933 581.256533a34.1504 34.1504 0 0 1 33.672534 39.867734c-2.730667 16.776533-18.500267 28.398933-35.498667 28.398933h-118.186667c-18.773333 0-33.979733 15.223467-33.979733 33.979733v65.877334c0 16.9984-11.6224 32.768-28.398933 35.498666a34.1504 34.1504 0 0 1-39.867734-33.672533v-67.720533c0-18.773333-15.223467-33.979733-33.979733-33.979734H320.341333c-16.9984 0-32.768-11.6224-35.498666-28.398933a34.1504 34.1504 0 0 1 33.672533-39.867733h120.354133a33.655467 33.655467 0 0 0 0-67.310934H320.341333c-16.9984 0-32.768-11.6224-35.498666-28.398933a34.1504 34.1504 0 0 1 33.672533-39.867733h65.6384c15.36 0 22.9888-18.653867 12.014933-29.405867l-66.116266-64.836267c-12.1344-11.895467-15.223467-31.197867-5.410134-45.073066a34.167467 34.167467 0 0 1 51.968-4.881067l108.270934 106.171733c13.448533 13.192533 35.037867 12.970667 48.213333-0.477866l101.819733-103.867734c11.912533-12.151467 31.249067-15.291733 45.175467-5.512533a34.133333 34.133333 0 0 1 4.9152 51.950933l-65.450667 66.7648c-10.6496 10.8544-2.952533 29.166933 12.253867 29.166934h61.184c16.9984 0 32.768 11.6224 35.498667 28.398933a34.1504 34.1504 0 0 1-33.672534 39.867733H574.464a33.655467 33.655467 0 0 0 0 67.310934h120.302933z" fill="#BFCBD9" p-id="5131"></path></svg>