<?xml version="1.0" standalone="no"?><!DOCTYPE svg PUBLIC "-//W3C//DTD SVG 1.1//EN" "http://www.w3.org/Graphics/SVG/1.1/DTD/svg11.dtd"><svg t="1564713126316" class="icon" viewBox="0 0 1024 1024" version="1.1" xmlns="http://www.w3.org/2000/svg" p-id="1872" xmlns:xlink="http://www.w3.org/1999/xlink" width="200" height="200"><defs><style type="text/css"></style></defs><path d="M487.4 458.7L124.5 294.2c-23.5-10.6-23.5-44 0-54.6L487.4 75.1c15.7-7.1 33.8-7.1 49.5 0l362.9 164.5c23.5 10.6 23.5 44 0 54.6L537 458.7c-15.8 7.1-33.8 7.1-49.6 0zM453.8 957l-326-153.9c-19.4-9.2-31.7-28.7-31.7-50.1L98 361.3c0-20.2 20.9-33.6 39.3-25.2l325.6 146.7c19.8 9 32.5 28.8 32.5 50.5L493.5 932c0 20.3-21.3 33.8-39.7 25zM569.2 957l327-154.4c19.4-9.2 31.8-28.8 31.8-50.3v-393c0-20.2-20.9-33.7-39.4-25.4L562 483.4c-19.9 9-32.7 28.9-32.7 50.7v397.8c0.1 20.4 21.4 33.9 39.9 25.1z" fill="#BFCBD9" p-id="1873"></path></svg>