<?xml version="1.0" standalone="no"?><!DOCTYPE svg PUBLIC "-//W3C//DTD SVG 1.1//EN" "http://www.w3.org/Graphics/SVG/1.1/DTD/svg11.dtd"><svg t="1564713644643" class="icon" viewBox="0 0 1024 1024" version="1.1" xmlns="http://www.w3.org/2000/svg" p-id="3558" xmlns:xlink="http://www.w3.org/1999/xlink" width="200" height="200"><defs><style type="text/css"></style></defs><path d="M794.746154 847.925842 794.746154 214.470653l-99.609649-86.385463L360.985076 252.854868l0 31.998785 302.028824-102.381785 0 710.247156 202.419176 0 0-44.793182L794.746154 847.925842 794.746154 847.925842 794.746154 847.925842zM251.735883 652.766001l160.65498-31.992645 0-79.981612-160.65498 41.59228L251.735883 652.766001 251.735883 652.766001 251.735883 652.766001zM251.735883 892.719025l160.65498 0 0-83.189677-160.65498 12.800537L251.735883 892.719025 251.735883 892.719025 251.735883 892.719025zM251.735883 774.339894l160.65498-15.996322 0-79.981612-160.65498 25.594935L251.735883 774.339894 251.735883 774.339894 251.735883 774.339894zM251.735883 531.192108l160.65498-44.788066L412.390863 403.226644l-160.65498 54.386678L251.735883 531.192108 251.735883 531.192108 251.735883 531.192108zM585.888336 323.244009l-89.969081-54.392818L158.5659 390.425084l0 505.489726 44.966121 0L203.532021 412.819117l253.836219-83.184561 0 563.083445 131.732254 0L585.888336 323.244009 585.888336 323.244009 585.888336 323.244009zM585.888336 323.244009" p-id="3559"></path></svg>